# xmcd
#
# Track frame offsets: 
#        150
#        9862
#        24402
#        38050
#        51360
#        64842
#        82377
#        96270
#        117417
#        141750
#        168187
#        185027
#        202977
#        222190
#        245132
#        261790
#        293737
#        314025
#
# Disc length: 4467 seconds
#
# Revision: 5
# Processed by: cddbd v1.5.2PL0 Copyright (c) Steve Scherf et al.
# Submitted via: ExactAudioCopy v0.99pb4
#
DISCID=0e117112
DTITLE=Buddy Guy - The Very Best Of Buddy Guy
DYEAR=1992
DGENRE=Blues
TTITLE0=First Time I Met The Blues
TTITLE1=The Way You Been Treating Me
TTITLE2=Sit And Cry (The Blues)
TTITLE3=This Is The End
TTITLE4=Stone Crazy
TTITLE5=When My Left Eye Jumps
TTITLE6=My Time After While
TTITLE7=Hold That Plane
TTITLE8=Hello San Francisco
TTITLE9=Five Long Years
TTITLE10=First Time I Met The Blues (2)
TTITLE11=A Man Of Many Words
TTITLE12=T-Bone Shuffle
TTITLE13=When You See The Tears From My Eyes
TTITLE14=Ten Years Ago
TTITLE15=Blues At My Baby's House
TTITLE16=She Suits Me To A T
TTITLE17=Just Teasin'
EXTD=\n\n YEAR: 1992 ID3G:   0
EXTT0=
EXTT1=
EXTT2=
EXTT3=
EXTT4=
EXTT5=
EXTT6=
EXTT7=
EXTT8=
EXTT9=
EXTT10=
EXTT11=
EXTT12=
EXTT13=
EXTT14=
EXTT15=
EXTT16=
EXTT17=
PLAYORDER=
